<svg xmlns="http://www.w3.org/2000/svg" width="48" height="48" viewBox="0 0 48 48">
  <defs>
    <pattern id="stripes-48" x="0" y="0" width="18" height="48" patternUnits="userSpaceOnUse">
      <rect width="18" height="48" fill="#1A1A2E"/>
      <rect x="0" y="0" width="1" height="48" fill="#F5F5E8" opacity="0.7"/>
      <rect x="2" y="0" width="4" height="48" fill="#0E9A57"/>
      <rect x="6" y="0" width="2" height="48" fill="#F5C518"/>
      <rect x="8" y="0" width="4" height="48" fill="#D92B2B"/>
      <rect x="13" y="0" width="1" height="48" fill="#0A0A12"/>
      <rect x="15" y="0" width="2" height="48" fill="#F5C518"/>
    </pattern>
    <clipPath id="outer-clip-48">
      <rect width="48" height="48" rx="9" ry="9"/>
    </clipPath>
  </defs>

  <!-- Stripe background -->
  <g clip-path="url(#outer-clip-48)">
    <rect width="48" height="48" fill="url(#stripes-48)"/>
  </g>

  <!-- Dark inner window -->
  <rect x="6" y="6" width="36" height="36" rx="5" ry="5" fill="#1A1A2E" opacity="0.92"/>
  <rect x="6" y="6" width="36" height="36" rx="5" ry="5" fill="none" stroke="#F5F5E8" stroke-opacity="0.08" stroke-width="1"/>

  <!-- Traffic light dots -->
  <circle cx="11" cy="11" r="1" fill="#D92B2B"/>
  <circle cx="14" cy="11" r="1" fill="#F5C518"/>
  <circle cx="17" cy="11" r="1" fill="#0E9A57"/>

  <!-- Play triangle -->
  <polygon points="21.8,22 21.8,30 29,26" fill="#F5F5E8" opacity="0.85"/>
</svg>